<?xml version="1.0" encoding="UTF-8"?>
<svg id="Layer_2" data-name="Layer 2" xmlns="http://www.w3.org/2000/svg" viewBox="0 0 350 66.79">
  <defs>
    <style>
      .cls-1 {
        fill: #fff;
      }
    </style>
  </defs>
  <g id="Layer_1-2" data-name="Layer 1">
    <g>
      <path class="cls-1" d="M113.41,14.05h-8.3v6.9h9.28v3.52h-13.3V.98h12.81v3.52h-8.79v6.07h8.3v3.49Z"/>
      <path class="cls-1" d="M131.71,19.39c0,2.02.06,3.69.13,5.09h-3.5l-.2-2.54h-.1c-.69,1.19-2.25,2.93-5.13,2.93s-5.52-1.85-5.52-7.39V7.5h4.02v9.24c0,2.82.85,4.64,2.97,4.64,1.63,0,2.68-1.19,3.07-2.3.16-.35.23-.84.23-1.33V7.5h4.02v11.89Z"/>
      <path class="cls-1" d="M136.07,12.97c0-2.3-.03-3.97-.13-5.47h3.46l.16,3.21h.1c.79-2.37,2.65-3.59,4.38-3.59.39,0,.62.03.95.11v4.01c-.36-.07-.72-.1-1.21-.1-1.89,0-3.23,1.29-3.59,3.24-.07.38-.1.84-.1,1.29v8.82h-4.02v-11.5Z"/>
      <path class="cls-1" d="M154.37,24.86c-4.47,0-7.97-3.28-7.97-8.75s3.43-8.99,8.23-8.99,7.91,3.56,7.91,8.72c0,6.24-4.12,9.03-8.13,9.03h-.03ZM154.5,21.76c2.29,0,3.89-2.37,3.89-5.82,0-2.65-1.11-5.72-3.85-5.72s-3.99,2.96-3.99,5.79c0,3.28,1.53,5.75,3.92,5.75h.03Z"/>
      <path class="cls-1" d="M165.84,13.14c0-2.23-.07-4.04-.13-5.65h3.53l.2,2.61h.06c1.18-1.92,3.04-3,5.46-3,3.66,0,6.7,3.35,6.7,8.64,0,6.14-3.63,9.1-7.25,9.1-1.99,0-3.66-.91-4.48-2.27h-.07v8.78h-4.02V13.14ZM169.86,17.36c0,.42.03.8.1,1.19.42,1.74,1.83,3,3.56,3,2.55,0,4.05-2.27,4.05-5.61,0-3-1.37-5.44-3.95-5.44-1.67,0-3.2,1.29-3.63,3.17-.07.35-.13.73-.13,1.08v2.61Z"/>
      <path class="cls-1" d="M187.81,17.19c.1,3.07,2.35,4.39,4.9,4.39,1.86,0,3.17-.31,4.41-.77l.59,2.93c-1.37.63-3.27,1.08-5.55,1.08-5.16,0-8.2-3.38-8.2-8.58,0-4.71,2.68-9.13,7.77-9.13s6.86,4.53,6.86,8.26c0,.8-.07,1.43-.13,1.81h-10.65ZM194.8,14.19c.03-1.57-.62-4.15-3.3-4.15-2.48,0-3.53,2.41-3.69,4.15h6.99Z"/>
      <path class="cls-1" d="M214.18,20.4c0,1.53.06,3.03.26,4.08h-3.63l-.29-1.88h-.1c-.95,1.32-2.61,2.27-4.71,2.27-3.2,0-5-2.48-5-5.05,0-4.25,3.56-6.45,9.44-6.41v-.28c0-1.12-.42-2.96-3.23-2.96-1.57,0-3.2.52-4.28,1.25l-.78-2.79c1.18-.77,3.23-1.5,5.75-1.5,5.1,0,6.57,3.45,6.57,7.18v6.1ZM210.26,16.18c-2.84-.03-5.55.59-5.55,3.17,0,1.67,1.01,2.44,2.29,2.44,1.63,0,2.78-1.12,3.17-2.34.1-.31.1-.63.1-.94v-2.34Z"/>
      <path class="cls-1" d="M218.43,12.55c0-1.95-.07-3.59-.13-5.06h3.5l.2,2.54h.1c.72-1.32,2.45-2.93,5.1-2.93,2.78,0,5.65,1.92,5.65,7.28v10.08h-4.02v-9.59c0-2.44-.85-4.29-3.04-4.29-1.6,0-2.71,1.22-3.14,2.51-.13.35-.2.87-.2,1.36v10h-4.02v-11.92Z"/>
      <g>
        <path class="cls-1" d="M105.56,35.62v13.7c0,4.6,1.8,6.73,4.51,6.73,2.91,0,4.64-2.13,4.64-6.73v-13.7h4.02v13.42c0,7.25-3.5,10.46-8.79,10.46s-8.4-3.03-8.4-10.42v-13.46h4.02Z"/>
        <path class="cls-1" d="M123.18,47.2c0-1.95-.07-3.59-.13-5.06h3.5l.2,2.54h.1c.72-1.32,2.45-2.93,5.1-2.93,2.78,0,5.65,1.92,5.65,7.28v10.08h-4.02v-9.59c0-2.44-.85-4.29-3.04-4.29-1.6,0-2.71,1.22-3.14,2.51-.13.35-.2.87-.2,1.36v10h-4.02v-11.92Z"/>
        <path class="cls-1" d="M141.87,59.12v-16.98h4.02v16.98h-4.02Z"/>
        <path class="cls-1" d="M152.79,42.14l2.58,8.61c.46,1.5.78,2.86,1.08,4.25h.1c.29-1.4.65-2.72,1.08-4.25l2.55-8.61h4.21l-6.08,16.98h-3.95l-5.91-16.98h4.35Z"/>
        <path class="cls-1" d="M169.26,51.83c.1,3.07,2.35,4.39,4.9,4.39,1.86,0,3.17-.31,4.41-.77l.59,2.93c-1.37.63-3.27,1.08-5.55,1.08-5.16,0-8.2-3.38-8.2-8.58,0-4.71,2.68-9.13,7.77-9.13s6.86,4.53,6.86,8.26c0,.8-.07,1.43-.13,1.81h-10.65ZM176.26,48.83c.03-1.57-.62-4.15-3.3-4.15-2.48,0-3.53,2.41-3.69,4.15h6.99Z"/>
        <path class="cls-1" d="M183.29,47.61c0-2.3-.03-3.97-.13-5.47h3.46l.16,3.21h.1c.78-2.37,2.65-3.59,4.38-3.59.39,0,.62.03.95.11v4.01c-.36-.07-.72-.1-1.21-.1-1.89,0-3.23,1.29-3.59,3.24-.07.38-.1.84-.1,1.29v8.82h-4.02v-11.5Z"/>
        <path class="cls-1" d="M194.76,55.14c.88.59,2.61,1.25,4.05,1.25,1.76,0,2.55-.8,2.55-1.92s-.65-1.71-2.61-2.48c-3.1-1.12-4.38-2.93-4.38-4.95,0-3,2.32-5.3,6.01-5.3,1.76,0,3.3.45,4.25,1.01l-.82,3c-.65-.42-1.96-.98-3.37-.98s-2.22.77-2.22,1.81.75,1.57,2.78,2.37c2.91,1.08,4.21,2.65,4.25,5.16,0,3.1-2.25,5.33-6.47,5.33-1.93,0-3.66-.49-4.84-1.19l.82-3.14Z"/>
        <path class="cls-1" d="M208.55,59.12v-16.98h4.02v16.98h-4.02Z"/>
        <path class="cls-1" d="M141.87,40.22v-4.43h4.02v4.43h-4.02Z"/>
        <path class="cls-1" d="M208.55,40.22v-4.43h4.02v4.43h-4.02Z"/>
        <path class="cls-1" d="M221.53,37.78v4.36h3.82v3.21h-3.82v7.46c0,2.09.52,3.14,2.06,3.14.72,0,1.11-.04,1.57-.17l.07,3.24c-.59.24-1.67.45-2.91.45-1.5,0-2.71-.52-3.46-1.4-.88-.98-1.27-2.54-1.27-4.78v-7.95h-2.26v-3.21h2.26v-3.17l3.95-1.19Z"/>
        <path class="cls-1" d="M231.17,42.14l2.84,9.1c.33,1.05.69,2.34.92,3.28h.1c.23-.94.52-2.23.85-3.31l2.48-9.06h4.28l-3.99,11.57c-2.19,6.34-3.66,9.17-5.52,10.91-1.6,1.46-3.23,2.02-4.21,2.16l-.91-3.59c.69-.17,1.5-.56,2.32-1.19.75-.52,1.67-1.53,2.22-2.69.13-.31.23-.56.23-.77,0-.17-.03-.42-.2-.84l-5.85-15.58h4.44Z"/>
      </g>
      <g>
        <g>
          <path class="cls-1" d="M269.08,42.36c-1.04-3.52-2.98-5.58-5.9-5.58-4.79,0-6.91,4.65-6.91,10.54s2.11,10.54,7.14,10.54c3.89,0,5.29-2.72,6.1-5.85l2.08.37c-.91,4.29-3.15,7.28-8.21,7.28-5.86,0-9.31-4.92-9.31-12.34s3.45-12.34,9.31-12.34c4.32,0,6.7,3.03,7.74,6.95l-2.05.43Z"/>
          <path class="cls-1" d="M263.38,59.82c-5.85,0-9.49-4.79-9.49-12.51s3.64-12.51,9.49-12.51c2.75,0,6.36,1.23,7.91,7.08l.05.18-2.38.5-.04-.15c-1.06-3.62-2.99-5.46-5.73-5.46-4.21,0-6.73,3.88-6.73,10.37s2.54,10.37,6.97,10.37c3.93,0,5.2-2.89,5.93-5.72l.04-.15,2.41.43-.04.17c-1.05,4.99-3.8,7.42-8.38,7.42ZM263.38,35.15c-5.64,0-9.14,4.66-9.14,12.17s3.5,12.16,9.14,12.16c4.4,0,6.95-2.22,8-6.97l-1.74-.31c-.77,2.91-2.13,5.83-6.23,5.83-4.65,0-7.31-3.9-7.31-10.71s2.65-10.71,7.08-10.71c2.83,0,4.91,1.92,6.02,5.56l1.71-.36c-.85-3.08-2.85-6.65-7.53-6.65Z"/>
        </g>
        <g>
          <path class="cls-1" d="M280.33,56.09h.07l4.86-14.06h2.14l-6.5,18.52c-1.17,3.39-2.41,4.89-5.56,4.89-.87,0-1.4-.07-1.87-.2v-1.63c.6.06,1.24.23,2.01.23,1.41,0,2.95-1.23,3.92-4.79l-6.07-17.02h2.21l4.79,14.06Z"/>
          <path class="cls-1" d="M275.34,65.61c-.85,0-1.41-.06-1.92-.21l-.12-.04v-1.95l.19.02c.21.02.42.06.64.09.42.07.85.14,1.35.14,1.59,0,2.92-1.64,3.74-4.61l-6.13-17.2h2.58l.04.12,4.66,13.69,4.77-13.8h2.51l-.08.23-6.5,18.52c-1.12,3.25-2.37,5.01-5.73,5.01ZM273.64,65.1c.45.12.96.16,1.7.16,3.17,0,4.31-1.61,5.4-4.78l6.42-18.29h-1.78l-4.86,14.07h-.32l-.04-.12-4.75-13.95h-1.84l6,16.84v.05c-1.18,4.28-3.08,4.92-4.1,4.92-.52,0-.97-.07-1.4-.14-.15-.02-.29-.05-.43-.07v1.3Z"/>
        </g>
        <g>
          <path class="cls-1" d="M290.89,42.03h2.01v2.66h.07c1.37-2,3.01-2.99,5.26-2.99,4.53,0,7,4.32,7,9.08,0,6.01-2.81,8.88-6.87,8.88-2.34,0-3.75-.8-5.46-2.6v8.38h-2.01v-23.41ZM292.9,54.96c.67,1.17,2.95,3.09,4.92,3.09,3.62,0,5.4-2.86,5.4-7.65,0-3.59-1.61-7.12-5.09-7.12-2.21,0-3.52,1.37-5.23,3.16v8.51Z"/>
          <path class="cls-1" d="M293.07,65.61h-2.36v-23.76h2.36v2.39c1.39-1.85,3.04-2.72,5.15-2.72,3.46,0,7.18,2.9,7.18,9.25,0,5.75-2.57,9.05-7.04,9.05-2.14,0-3.56-.62-5.29-2.34v8.13ZM291.06,65.26h1.66v-8.64l.3.32c1.79,1.88,3.18,2.54,5.33,2.54,4.25,0,6.69-3.17,6.69-8.7,0-6.12-3.54-8.91-6.83-8.91-2.12,0-3.75.93-5.12,2.92l-.05.08h-.33v-2.66h-1.66v23.07ZM297.82,58.23c-2.13,0-4.44-2.07-5.07-3.18l-.02-.04v-8.63l.05-.05c1.71-1.8,3.06-3.22,5.35-3.22,3.64,0,5.27,3.66,5.27,7.29,0,5.04-1.98,7.82-5.57,7.82ZM293.07,54.91c.71,1.2,2.94,2.97,4.75,2.97,2.38,0,5.22-1.3,5.22-7.48,0-3.46-1.52-6.94-4.92-6.94-2.12,0-3.42,1.35-5.05,3.06v8.4Z"/>
        </g>
        <g>
          <path class="cls-1" d="M309.05,59.32v-17.29h2.01v3.29h.07c.94-2.13,2.81-3.62,5.03-3.62h.9v1.93h-.9c-2.21,0-5.09,2.59-5.09,5.92v9.78h-2.01Z"/>
          <path class="cls-1" d="M311.23,59.49h-2.36v-17.63h2.36v2.86c1.07-1.98,2.91-3.19,4.92-3.19h1.08v2.27h-1.08c-2.22,0-4.92,2.65-4.92,5.75v9.95ZM309.22,59.14h1.67v-9.6c0-3.37,2.88-6.09,5.27-6.09h.73v-1.58h-.73c-2.04,0-3.91,1.35-4.87,3.52l-.04.1h-.36v-3.29h-1.67v16.94Z"/>
        </g>
        <g>
          <path class="cls-1" d="M333.47,42.03v17.29h-2.01v-2.73c-1.88,1.93-3.42,3.06-5.97,3.06-3.62,0-5.16-2.06-5.16-5.82v-11.8h2.01v11.6c0,2.86.87,4.43,3.55,4.43,2.14,0,3.35-1.3,5.56-3.3v-12.73h2.01Z"/>
          <path class="cls-1" d="M325.5,59.82c-3.59,0-5.33-1.96-5.33-5.99v-11.98h2.36v11.78c0,3.02.98,4.25,3.38,4.25,1.88,0,3-1.02,4.86-2.72l.53-.48v-12.83h2.36v17.63h-2.36v-2.48c-1.83,1.83-3.35,2.81-5.79,2.81ZM320.51,42.2v11.63c0,3.8,1.63,5.65,4.99,5.65,2.45,0,3.95-1.06,5.84-3.01l.3-.31v2.98h1.66v-16.94h-1.66v12.64l-.64.58c-1.85,1.69-3.08,2.81-5.1,2.81-2.58,0-3.72-1.42-3.72-4.6v-11.43h-1.67Z"/>
        </g>
        <g>
          <path class="cls-1" d="M338.53,55.13c1.64,2.33,3.12,2.93,5.39,2.93s3.89-1.43,3.89-3.3c0-5.02-10.25-2.19-10.25-8.34,0-3.26,2.58-4.72,5.53-4.72s4.76,1.13,6,3.13l-1.54,1.06c-1.18-1.6-2.45-2.6-4.53-2.6-1.94,0-3.45.93-3.45,3.03,0,4.22,10.25,1.73,10.25,8.44,0,3.1-2.88,4.89-6.03,4.89-2.68,0-5.09-1.07-6.74-3.49l1.47-1.03Z"/>
          <path class="cls-1" d="M343.8,59.82c-2.92,0-5.3-1.23-6.88-3.57l-.1-.14,1.75-1.22.1.14c1.69,2.4,3.15,2.85,5.25,2.85s3.72-1.34,3.72-3.12c0-2.25-2.24-2.84-4.61-3.47-2.65-.7-5.65-1.5-5.65-4.87,0-2.97,2.24-4.89,5.71-4.89,2.83,0,4.78,1.02,6.14,3.21l.09.14-1.81,1.26-.1-.14c-1.32-1.79-2.59-2.53-4.39-2.53-2.08,0-3.28,1.04-3.28,2.86s1.91,2.26,4.12,2.87c2.88.79,6.14,1.69,6.14,5.57,0,3.32-3.12,5.06-6.2,5.06ZM337.3,56.2c1.51,2.14,3.75,3.28,6.5,3.28,2.91,0,5.86-1.62,5.86-4.72,0-3.61-3.13-4.48-5.88-5.24-2.25-.62-4.37-1.21-4.37-3.21s1.35-3.2,3.62-3.2,3.61,1.26,4.57,2.53l1.26-.88c-1.29-1.98-3.12-2.91-5.76-2.91s-5.36,1.19-5.36,4.55c0,3.1,2.74,3.83,5.39,4.54,2.39.64,4.86,1.29,4.86,3.81,0,1.98-1.75,3.47-4.06,3.47-2.12,0-3.7-.47-5.44-2.86l-1.19.83Z"/>
        </g>
      </g>
      <g>
        <rect class="cls-1" x="79.79" y=".69" width="2.07" height="58.83"/>
        <g>
          <path class="cls-1" d="M53.17,20.24c-2.48-5.44-14.22-5.76-29.16-1.64,19.83-8.44,37.71-10.09,40.71-3.52,3.07,6.74-9.2,18.97-29.38,28.51,13.74-8.85,20.4-17.72,17.83-23.35Z"/>
          <path class="cls-1" d="M11.91,23.06c-2.47-5.44,5-14.5,17.91-23.06C10.43,9.42-2.56,21.82.43,28.39c3.06,6.75,20.35,5.52,40.8-3.44-15.7,4.56-26.76,3.75-29.32-1.88Z"/>
          <path class="cls-1" d="M24.7,50.01c-2.47-5.44,4.99-14.5,17.91-23.06-19.38,9.42-32.38,21.82-29.39,28.4,3.06,6.74,20.35,5.52,40.8-3.44-15.7,4.55-26.76,3.74-29.32-1.89Z"/>
        </g>
      </g>
    </g>
  </g>
</svg>