<?xml version="1.0" encoding="UTF-8"?>
<svg id="Layer_2" data-name="Layer 2" xmlns="http://www.w3.org/2000/svg" viewBox="0 0 50.6 37.5">
  <defs>
    <style>
      .cls-1 {
        fill: #1d191c;
      }
    </style>
  </defs>
  <g id="Layer_1-2" data-name="Layer 1">
    <g>
      <path class="cls-1" d="M49.3,7.7H16.6c-.7,0-1.3-.6-1.3-1.3s.6-1.3,1.3-1.3h32.7c.7,0,1.3.6,1.3,1.3s-.6,1.3-1.3,1.3Z"/>
      <path class="cls-1" d="M6.4,7.7H1.3c-.7,0-1.3-.6-1.3-1.3s.6-1.3,1.3-1.3h5.1c.7,0,1.3.6,1.3,1.3s-.5,1.3-1.3,1.3Z"/>
      <path class="cls-1" d="M49.3,20h-8.6c-.7,0-1.3-.6-1.3-1.3s.6-1.3,1.3-1.3h8.6c.7,0,1.3.6,1.3,1.3s-.6,1.3-1.3,1.3Z"/>
      <path class="cls-1" d="M30.5,20H1.3c-.7,0-1.3-.6-1.3-1.3s.6-1.3,1.3-1.3h29.2c.7,0,1.3.6,1.3,1.3s-.6,1.3-1.3,1.3Z"/>
      <path class="cls-1" d="M49.3,32.4H16.6c-.7,0-1.3-.6-1.3-1.3s.6-1.3,1.3-1.3h32.7c.7,0,1.3.6,1.3,1.3s-.6,1.3-1.3,1.3Z"/>
      <path class="cls-1" d="M6.4,32.4H1.3c-.7,0-1.3-.6-1.3-1.3,0-.8.6-1.4,1.3-1.4h5.1c.7,0,1.3.6,1.3,1.3.1.8-.5,1.4-1.3,1.4Z"/>
      <path class="cls-1" d="M11.5,12.8c-3.5,0-6.4-2.9-6.4-6.4S8,0,11.5,0s6.4,2.9,6.4,6.4-2.8,6.4-6.4,6.4ZM11.5,2.6c-2.1,0-3.8,1.7-3.8,3.8s1.7,3.8,3.8,3.8,3.8-1.7,3.8-3.8-1.7-3.8-3.8-3.8Z"/>
      <path class="cls-1" d="M35.6,25.1c-3.5,0-6.4-2.9-6.4-6.4s2.9-6.4,6.4-6.4,6.4,2.9,6.4,6.4-2.8,6.4-6.4,6.4ZM35.6,14.9c-2.1,0-3.8,1.7-3.8,3.8s1.7,3.8,3.8,3.8,3.8-1.7,3.8-3.8-1.7-3.8-3.8-3.8Z"/>
      <path class="cls-1" d="M11.5,37.5c-3.5,0-6.4-2.9-6.4-6.4s2.9-6.4,6.4-6.4,6.4,2.9,6.4,6.4c.1,3.5-2.8,6.4-6.4,6.4ZM11.5,27.3c-2.1,0-3.8,1.7-3.8,3.8s1.7,3.8,3.8,3.8,3.8-1.7,3.8-3.8-1.7-3.8-3.8-3.8Z"/>
    </g>
  </g>
</svg>