<svg width="74" height="25" viewBox="0 0 74 25" fill="none" xmlns="http://www.w3.org/2000/svg">
<path fill-rule="evenodd" clip-rule="evenodd" d="M2.79337 5.88043C4.40943 4.33716 6.52683 3.4777 8.72641 3.47217C10.9265 3.47596 13.0448 4.33484 14.6612 5.87845C16.2776 7.42205 17.2741 9.53761 17.4528 11.8055H11.8461C11.6854 11.0781 11.2907 10.4286 10.7266 9.96342C10.1625 9.49824 9.46243 9.24492 8.74096 9.24492C8.01949 9.24492 7.3194 9.49824 6.75529 9.96342C6.19118 10.4286 5.79648 11.0781 5.63581 11.8055H0C0.180407 9.53825 1.17731 7.42369 2.79337 5.88043ZM10.7132 14.9705C11.2766 14.522 11.6708 13.8958 11.8313 13.1944H17.4528V24.9999H12.6811C12.629 23.9841 12.1888 23.0269 11.4511 22.3254C10.7134 21.6239 9.73429 21.2315 8.71552 21.2291C6.5182 21.2255 4.40251 20.3974 2.78812 18.9091C1.17372 17.4208 0.178552 15.381 0 13.1944H5.62877C5.78925 13.8958 6.18345 14.522 6.74686 14.9705C7.31026 15.419 8.00948 15.6632 8.73005 15.6632C9.45061 15.6632 10.1498 15.419 10.7132 14.9705Z" fill="white"/>
<path fill-rule="evenodd" clip-rule="evenodd" d="M43.6953 2.67494C44.4321 3.37637 45.4106 3.76788 46.4282 3.7685H46.4499C48.6438 3.77565 50.7551 4.60538 52.3662 6.09362C53.9774 7.58185 54.9712 9.6202 55.151 11.8056H49.5315C49.3682 11.1063 48.973 10.4829 48.4102 10.0367C47.8474 9.59038 47.1502 9.3475 46.4318 9.3475C45.7134 9.3475 45.0161 9.59038 44.4534 10.0367C43.8906 10.4829 43.4954 11.1063 43.332 11.8056H37.6981V0H42.4692C42.5194 1.01583 42.9584 1.97351 43.6953 2.67494ZM48.4074 15.0289C48.9704 14.5661 49.3658 13.9195 49.5292 13.1944H55.151C54.9721 15.465 53.9752 17.5827 52.3584 19.1267C50.7416 20.6706 48.6233 21.5278 46.4245 21.5278C44.2257 21.5278 42.1074 20.6706 40.4907 19.1267C38.8739 17.5827 37.877 15.465 37.6981 13.1944H43.3271C43.4905 13.9195 43.8859 14.5661 44.4489 15.0289C45.0119 15.4917 45.7095 15.7435 46.4282 15.7435C47.1468 15.7435 47.8444 15.4917 48.4074 15.0289Z" fill="white"/>
<path fill-rule="evenodd" clip-rule="evenodd" d="M21.6326 5.87905C23.2458 4.33528 25.3607 3.47613 27.5573 3.47218C29.7598 3.46843 31.8827 4.32395 33.5033 5.8683C35.1239 7.41266 36.1231 9.53249 36.3019 11.8055H30.6705C30.5073 11.0824 30.1126 10.4376 29.5507 9.97615C28.9888 9.51465 28.2927 9.26349 27.5755 9.26349C26.8583 9.26349 26.1621 9.51465 25.6002 9.97615C25.0383 10.4376 24.6437 11.0824 24.4804 11.8055H18.8491C19.0257 9.53831 20.0193 7.42282 21.6326 5.87905ZM29.573 15.0778C30.1361 14.6026 30.5316 13.9389 30.6952 13.1944H36.3019C36.0691 15.4836 35.0495 17.6007 33.4388 19.1388C31.8281 20.6769 29.7399 21.5277 27.5755 21.5277C25.411 21.5277 23.3229 20.6769 21.7122 19.1388C20.1015 17.6007 19.0818 15.4836 18.8491 13.1944H24.4921C24.6557 13.9389 25.0512 14.6026 25.6143 15.0778C26.1774 15.5529 26.875 15.8115 27.5937 15.8115C28.3124 15.8115 29.0099 15.5529 29.573 15.0778Z" fill="white"/>
<path fill-rule="evenodd" clip-rule="evenodd" d="M59.3382 5.88102C60.9545 4.33759 63.0729 3.47785 65.2736 3.47217C67.4743 3.47785 69.5927 4.33759 71.2089 5.88102C72.8252 7.42445 73.8213 9.53895 74 11.8055H68.3933C68.2297 11.0824 67.8342 10.4376 67.2711 9.97614C66.708 9.51464 66.0105 9.26348 65.2918 9.26348C64.5731 9.26348 63.8755 9.51464 63.3124 9.97614C62.7494 10.4376 62.3539 11.0824 62.1903 11.8055H56.5472C56.7259 9.53895 57.722 7.42445 59.3382 5.88102ZM67.2198 15.0339C67.7817 14.5698 68.1764 13.9216 68.3396 13.1944H74C73.8109 15.4685 72.8096 17.5861 71.194 19.1289C69.5784 20.6718 67.4658 21.5277 65.2736 21.5277C63.0814 21.5277 60.9688 20.6718 59.3532 19.1289C57.7376 17.5861 56.7363 15.4685 56.5472 13.1944H62.1495C62.3128 13.9216 62.7074 14.5698 63.2693 15.0339C63.8312 15.498 64.5274 15.7505 65.2446 15.7505C65.9618 15.7505 66.6579 15.498 67.2198 15.0339Z" fill="white"/>
</svg>
